<?xml version="1.0" ?><!DOCTYPE svg  PUBLIC '-//W3C//DTD SVG 1.1//EN'  'http://www.w3.org/Graphics/SVG/1.1/DTD/svg11.dtd'><svg width="50px" height="50px" viewBox="0 0 50 50" enable-background="new 0 0 50 50" version="1.1" xml:space="preserve" xmlns="http://www.w3.org/2000/svg" xmlns:xlink="http://www.w3.org/1999/xlink"><g id="Layer_13"/><g id="Layer_12"/><g id="Layer_11"/><g id="Layer_10"/><g id="Layer_9"><path clip-rule="evenodd" d="M25.053,41.454l4.666-2.435l4.667,2.435l2.042-1.039l-0.002-4.549l-2.04,1.049   l-4.667-2.435l-4.666,2.435l-4.667-2.435l-4.667,2.435l-2.472-1.267l-0.002,4.55l2.474,1.256l4.667-2.435L25.053,41.454z    M29.719,31.803l4.667,2.435l1.992-1.014c-0.077-1.453-0.253-2.901-0.542-4.309l-1.523,0.785l-4.667-2.435l-4.667,2.435   l-4.667-2.435l-4.667,2.435l-1.78-0.914c-0.292,1.381-0.472,2.802-0.558,4.229l2.412,1.225l4.667-2.435l4.667,2.435L29.719,31.803z    M27.089,17.288h-4.471l-3.321-4.202l3.941,0.731l-1.933-5.383l3.292,1.53l2.81-2.345l-1.731,6.205l4.88-1.557L27.089,17.288z    M24.979,27.021l4.667-2.435l4.667,2.435l0.914-0.465c-1.025-3.259-2.788-6.203-5.518-8.322l7.544-10.928L29.61,9.745L32.328,0   l-8.146,6.797l-7.59-3.527l2.53,7.045l-6.376-1.18l7.2,9.112c-2.689,2.093-4.43,4.98-5.461,8.186l1.158,0.588l4.667-2.435   L24.979,27.021z M21.092,49.989L28.986,50c4.151-0.684,6.636-2.614,7.315-6.854l-1.915,0.985l-4.667-2.435l-4.666,2.435   l-4.667-2.435l-4.667,2.435l-2.376-1.218C14.023,47.277,16.917,49.266,21.092,49.989z" fill-rule="evenodd"/></g><g id="Layer_8"/><g id="Layer_7"/><g id="Layer_6"/><g id="Layer_5"/><g id="Layer_4"/><g id="Layer_3"/><g id="Layer_2"/></svg>