<?xml version="1.0" ?><svg width="64px" height="64px" viewBox="0 0 64 64" id="Layer_1_1_" style="enable-background:new 0 0 64 64;" version="1.1" xml:space="preserve" xmlns="http://www.w3.org/2000/svg" xmlns:xlink="http://www.w3.org/1999/xlink"><g><rect height="42" style="fill:#969FAA;" width="60" x="2" y="20"/><rect height="2" style="fill:#838F9B;" width="60" x="2" y="32"/><rect height="12" style="fill:#838F9B;" width="8" x="18" y="46"/><rect height="12" style="fill:#838F9B;" width="8" x="38" y="46"/><rect height="2" style="fill:#838F9B;" width="60" x="2" y="56"/><rect height="2" style="fill:#AAB2BD;" width="60" x="2" y="34"/><rect height="6" style="fill:#969FAA;" width="14" x="25" y="14"/><rect height="6" style="fill:#969FAA;" width="10" x="27" y="8"/><rect height="6" style="fill:#969FAA;" width="6" x="29" y="2"/><rect height="16" style="fill:#AAB2BD;" width="16" x="43" y="4"/><rect height="4" style="fill:#838F9B;" width="8" x="47" y="12"/><rect height="16" style="fill:#AAB2BD;" width="16" x="5" y="4"/><rect height="4" style="fill:#838F9B;" width="8" x="9" y="12"/><rect height="4" style="fill:#656D78;" width="60" x="2" y="58"/><path d="M28,58v-6.877c0-2.423,1.649-4.535,4-5.123h0h0c2.351,0.588,4,2.7,4,5.123V58H28z" style="fill:#DFB28B;"/><path d="M48,58v-6.877c0-2.423,1.649-4.535,4-5.123h0h0c2.351,0.588,4,2.7,4,5.123V58H48z" style="fill:#DFB28B;"/><rect height="12" style="fill:#CCD1D9;" width="4" x="40" y="46"/><path d="M8,58v-6.877C8,48.7,9.649,46.588,12,46h0h0c2.351,0.588,4,2.7,4,5.123V58H8z" style="fill:#DFB28B;"/><rect height="12" style="fill:#CCD1D9;" width="4" x="20" y="46"/><rect height="14" style="fill:#CCD1D9;" width="12" x="7" y="20"/><polygon points="7,34 7,27 10,24 13,27 13,34  " style="fill:#AAB2BD;"/><polygon points="13,34 13,27 16,24 19,27 19,34  " style="fill:#AAB2BD;"/><rect height="14" style="fill:#CCD1D9;" width="12" x="45" y="20"/><polygon points="57,34 57,27 54,24 51,27 51,34  " style="fill:#AAB2BD;"/><polygon points="51,34 51,27 48,24 45,27 45,34  " style="fill:#AAB2BD;"/><rect height="14" style="fill:#CCD1D9;" width="18" x="23" y="20"/><polygon points="35,34 35,27 32,24 29,27 29,34  " style="fill:#AAB2BD;"/><polygon points="41,34 41,27 38,24 35,27 35,34  " style="fill:#AAB2BD;"/><polygon points="29,34 29,27 26,24 23,27 23,34  " style="fill:#AAB2BD;"/><rect height="2" style="fill:#838F9B;" width="10" x="27" y="12"/><rect height="2" style="fill:#CCD1D9;" width="3" x="56" y="7"/><rect height="2" style="fill:#CCD1D9;" width="11" x="43" y="7"/><rect height="2" style="fill:#CCD1D9;" width="3" x="18" y="7"/><rect height="2" style="fill:#CCD1D9;" width="11" x="5" y="7"/><rect height="2" style="fill:#838F9B;" width="6" x="29" y="6"/><rect height="2" style="fill:#969FAA;" width="16" x="5" y="18"/><rect height="2" style="fill:#969FAA;" width="16" x="43" y="18"/><rect height="2" style="fill:#B27946;" width="8" x="8" y="56"/><rect height="2" style="fill:#B27946;" width="8" x="28" y="56"/><rect height="2" style="fill:#B27946;" width="8" x="48" y="56"/><rect height="2" style="fill:#969FAA;" width="12" x="7" y="32"/><rect height="2" style="fill:#969FAA;" width="12" x="45" y="32"/><rect height="2" style="fill:#969FAA;" width="18" x="23" y="32"/><rect height="12" style="fill:#CCD1D9;" width="60" x="2" y="34"/><rect height="12" style="fill:#AAB2BD;" width="8" x="40" y="34"/><rect height="12" style="fill:#AAB2BD;" width="8" x="16" y="34"/><rect height="2" style="fill:#AAB2BD;" width="60" x="2" y="44"/><path d="M50,46v-6.877c0-2.423,1.649-4.535,4-5.123h0h0c2.351,0.588,4,2.7,4,5.123V46H50z" style="fill:#DFB28B;"/><rect height="12" style="fill:#CCD1D9;" width="4" x="42" y="34"/><path d="M14,46v-6.877c0-2.423-1.649-4.535-4-5.123h0h0c-2.351,0.588-4,2.7-4,5.123V46H14z" style="fill:#DFB28B;"/><rect height="12" style="fill:#CCD1D9;" width="4" x="18" y="34"/><circle cx="32" cy="40" r="6" style="fill:#969FAA;"/><circle cx="32" cy="40" r="2" style="fill:#838F9B;"/><rect height="2" style="fill:#B27946;" width="8" x="6" y="44"/><rect height="2" style="fill:#B27946;" width="8" x="50" y="44"/><rect height="2" style="fill:#838F9B;" width="14" x="25" y="18"/><path d="M36.463,44h-8.926c1.099,1.225,2.688,2,4.463,2S35.365,45.225,36.463,44z" style="fill:#838F9B;"/></g></svg>