<?xml version="1.0" ?><svg width="64px" height="64px" viewBox="0 0 64 64" id="Layer_1_1_" style="enable-background:new 0 0 64 64;" version="1.1" xml:space="preserve" xmlns="http://www.w3.org/2000/svg" xmlns:xlink="http://www.w3.org/1999/xlink"><g><polygon points="54,24 10,24 2,38 2,62 62,62 62,38  " style="fill:#E6E9ED;"/><rect height="2" style="fill:#CCD1D9;" width="60" x="2" y="60"/><rect height="2" style="fill:#CCD1D9;" width="60" x="2" y="38"/><path d="M59,53h-2v-9h-2v7H9v-7H7v9H5v2h2v7h2v-3h46v3h2v-7h2V53z M55,57H9v-4h46V57z" style="fill:#AAB2BD;"/><path d="M28,62V50c0-1.105,0.895-2,2-2h4c1.105,0,2,0.895,2,2v12H28z" style="fill:#838F9B;"/><path d="M50,62V50c0-1.105-0.895-2-2-2h-4c-1.105,0-2,0.895-2,2v12H50z" style="fill:#838F9B;"/><path d="M22,62V50c0-1.105-0.895-2-2-2h-4c-1.105,0-2,0.895-2,2v12H22z" style="fill:#838F9B;"/><polygon points="50,24 50,13 32,5 14,13 14,24  " style="fill:#E6E9ED;"/><rect height="2" style="fill:#CCD1D9;" width="36" x="14" y="22"/><polygon points="14,13 14,15.95 32,8.713 50,15.95 50,13 32,5  " style="fill:#CCD1D9;"/><polygon points="11,10 11,15 32,6.557 53,15 53,10 32,2  " style="fill:#AAB2BD;"/><rect height="2" style="fill:#AAB2BD;" width="28" x="18" y="35"/><path d="M18,40v-6c0-1.105-0.895-2-2-2h0c-1.105,0-2,0.895-2,2v6H18z" style="fill:#838F9B;"/><path d="M26,40v-6c0-1.105-0.895-2-2-2h0c-1.105,0-2,0.895-2,2v6H26z" style="fill:#838F9B;"/><path d="M34,40v-6c0-1.105-0.895-2-2-2h0c-1.105,0-2,0.895-2,2v6H34z" style="fill:#838F9B;"/><path d="M42,40v-6c0-1.105-0.895-2-2-2h0c-1.105,0-2,0.895-2,2v6H42z" style="fill:#838F9B;"/><path d="M50,40v-6c0-1.105-0.895-2-2-2h0c-1.105,0-2,0.895-2,2v6H50z" style="fill:#838F9B;"/><rect height="2" style="fill:#AAB2BD;" width="20" x="22" y="19"/><path d="M22,24v-6c0-1.105-0.895-2-2-2h0c-1.105,0-2,0.895-2,2v6H22z" style="fill:#838F9B;"/><path d="M30,24v-6c0-1.105-0.895-2-2-2h0c-1.105,0-2,0.895-2,2v6H30z" style="fill:#838F9B;"/><path d="M38,24v-6c0-1.105-0.895-2-2-2h0c-1.105,0-2,0.895-2,2v6H38z" style="fill:#838F9B;"/><path d="M46,24v-6c0-1.105-0.895-2-2-2h0c-1.105,0-2,0.895-2,2v6H46z" style="fill:#838F9B;"/><polygon points="62,40 2,40 2,44 11,44 13,44 51,44 53,44 62,44  " style="fill:#AAB2BD;"/><rect height="2" style="fill:#AAB2BD;" width="3" x="59" y="57"/><rect height="2" style="fill:#AAB2BD;" width="3" x="59" y="49"/><rect height="2" style="fill:#AAB2BD;" width="3" x="2" y="57"/><rect height="2" style="fill:#AAB2BD;" width="3" x="2" y="49"/><polygon points="62,38 54,24 10,24 2,38 2,40 6,40 13,28 51,28 58,40 62,40  " style="fill:#AAB2BD;"/><rect height="2" style="fill:#656D78;" width="4" x="14" y="38"/><rect height="2" style="fill:#656D78;" width="4" x="22" y="38"/><rect height="2" style="fill:#656D78;" width="4" x="26" y="22"/><rect height="2" style="fill:#656D78;" width="4" x="42" y="22"/><rect height="2" style="fill:#656D78;" width="4" x="18" y="22"/><rect height="2" style="fill:#656D78;" width="4" x="34" y="22"/><rect height="2" style="fill:#656D78;" width="4" x="30" y="38"/><rect height="2" style="fill:#656D78;" width="4" x="38" y="38"/><rect height="2" style="fill:#656D78;" width="4" x="46" y="38"/><polygon points="2,38 2,40 6,40 7.167,38  " style="fill:#969FAA;"/><polygon points="56.833,38 58,40 62,40 62,38  " style="fill:#969FAA;"/><rect height="2" style="fill:#656D78;" width="8" x="14" y="60"/><rect height="2" style="fill:#656D78;" width="8" x="28" y="60"/><rect height="2" style="fill:#656D78;" width="8" x="42" y="60"/><rect height="2" style="fill:#969FAA;" width="2" x="7" y="60"/><rect height="2" style="fill:#969FAA;" width="2" x="55" y="60"/></g></svg>