<?xml version="1.0" ?><svg width="64px" height="64px" viewBox="0 0 64 64" id="Layer_1_1_" style="enable-background:new 0 0 64 64;" version="1.1" xml:space="preserve" xmlns="http://www.w3.org/2000/svg" xmlns:xlink="http://www.w3.org/1999/xlink"><g><path d="M49.549,23L50,22.418l8.584-11.077C55.006,9.834,51.075,9,46.949,9C42.311,9,37.92,10.052,34,11.931   L31,13l12,17L49.549,23z" style="fill:#E6E9ED;"/><path d="M49.549,23L50,22.418l1.063-1.372c-1.894,0.106-3.76,0.51-5.513,1.229   c-2.148-4.543-5.275-8.398-9.056-11.392c-0.848,0.316-1.683,0.66-2.493,1.048L31,13l12,17L49.549,23z" style="fill:#CCD1D9;"/><polygon points="9,42 2,21 2,20 14,20 23,20 14,42  " style="fill:#E6E9ED;"/><polygon points="9,42 2,21 2,20 14,20 23,20 14,42  " style="fill:#E6E9ED;"/><polygon points="17.42,21.102 15.907,24.173 8.494,40.481 9,42 14,42 20.777,25.434  " style="fill:#CCD1D9;"/><polygon points="17.799,24.856 17.727,25 10,42 10,50 30,50 30,25  " style="fill:#ECC19C;"/><polygon points="30,25 17.799,24.856 17.727,25 16.86,26.909 27.116,40.143 29.542,44.059 30,43.658  " style="fill:#DFB28B;"/><polygon points="30,50 30,32.964 21.409,49 21,50  " style="fill:#CF9E76;"/><polygon points="11.506,20 19.029,29.707 23,20 14,20  " style="fill:#CCD1D9;"/><polygon points="30,32.964 26.548,39.409 27.116,40.143 29.542,44.059 30,43.658  " style="fill:#B27946;"/><path d="M44.551,25C40.165,13.873,29.321,6,16.636,6C12.509,6,8.578,6.834,5,8.341L28.761,39L30,41l16-14   L44.551,25z" style="fill:#E6E9ED;"/><path d="M44.551,25c-0.248-0.63-0.524-1.246-0.812-1.854c-2.785,1.548-5.132,3.871-6.707,6.788l-1.412,1.934   l1.606,2.81L46,27L44.551,25z" style="fill:#CCD1D9;"/><path d="M52,23c-5.756,0-10.755,3.242-13.27,8L38,32l8,14l15.901-19.248C59.258,24.424,55.799,23,52,23z" style="fill:#E6E9ED;"/><polygon points="36,21.765 27.582,37.479 28.761,39 30,41 30,56 54.341,56  " style="fill:#CCD1D9;"/><polygon points="62,46 62,45 55,35 46,46  " style="fill:#ECC19C;"/><polygon points="55,35 46,46 48.594,46 56.23,36.757  " style="fill:#CF9E76;"/><rect height="8" style="fill:#F5E0CD;" width="15" x="47" y="46"/><polygon points="48.984,46 47,46 47,54 53.269,54  " style="fill:#DFB28B;"/><rect height="2" style="fill:#DFB28B;" width="15" x="47" y="52"/><polygon points="47,52 47,54 53.269,54 52.198,52  " style="fill:#CF9E76;"/><rect height="2" style="fill:#DFB28B;" width="16" x="46" y="46"/><polygon points="36,26 21,54 51,54  " style="fill:#ECC19C;"/><polygon points="22,52 21,54 51,54 50,52  " style="fill:#DFB28B;"/><polygon points="21,54 28.236,54 24.743,47.013  " style="fill:#DFB28B;"/><polygon points="22,52 21,54 28.236,54 27.236,52  " style="fill:#CF9E76;"/><polygon points="26,54 2,54 2,42 20,42  " style="fill:#F0D0B4;"/><polygon points="2,52 2,54 26,54 25,52  " style="fill:#DFB28B;"/><rect height="8" style="fill:#CF9E76;" width="8" x="8" y="46"/><rect height="4" style="fill:#CF9E76;" width="4" x="54" y="50"/><rect height="6" style="fill:#CF9E76;" width="8" x="33" y="48"/><polygon points="29.571,38 26.357,44 45.643,44 42.429,38  " style="fill:#F0D0B4;"/><polygon points="17.799,24.856 17.727,25 12.727,36 26.436,36  " style="fill:#F0D0B4;"/><polygon points="17.727,25 16.86,26.909 23.906,36 26.436,36 17.799,24.856  " style="fill:#ECC19C;"/><rect height="2" style="fill:#B27946;" width="8" x="8" y="52"/><rect height="2" style="fill:#B27946;" width="8" x="33" y="52"/><polygon points="23.5,49 24.618,46.764 21.236,40 10.909,40 10,42 20,42  " style="fill:#CF9E76;"/><rect height="2" style="fill:#B27946;" width="4" x="54" y="52"/><rect height="4" style="fill:#838F9B;" width="60" x="2" y="54"/></g></svg>