<?xml version="1.0" ?><svg width="64px" height="64px" viewBox="0 0 64 64" id="Layer_1_1_" style="enable-background:new 0 0 64 64;" version="1.1" xml:space="preserve" xmlns="http://www.w3.org/2000/svg" xmlns:xlink="http://www.w3.org/1999/xlink"><g><rect height="12" style="fill:#F0D0B4;" width="36" x="14" y="26"/><rect height="2" style="fill:#ECC19C;" width="36" x="14" y="36"/><rect height="2" style="fill:#ECC19C;" width="36" x="14" y="26"/><rect height="20" style="fill:#F0D0B4;" width="60" x="2" y="38"/><rect height="20" style="fill:#ECC19C;" width="2" x="6" y="38"/><rect height="20" style="fill:#F5E0CD;" width="48" x="8" y="38"/><path d="M37.304,43.264c-0.282-0.07-0.545-0.195-0.781-0.373L32,39.5l-4.523,3.392   c-0.235,0.177-0.498,0.302-0.785,0.373C23.93,43.957,22,46.429,22,49.275V58h20v-8.725C42,46.429,40.07,43.957,37.304,43.264z" style="fill:#F0D0B4;"/><rect height="2" style="fill:#F0D0B4;" width="48" x="8" y="56"/><path d="M52,58v-8c0-2.209-1.791-4-4-4h0c-2.209,0-4,1.791-4,4v8H52z" style="fill:#DFB28B;"/><path d="M20,58v-8c0-2.209-1.791-4-4-4h0c-2.209,0-4,1.791-4,4v8H20z" style="fill:#DFB28B;"/><polygon points="40,58 62,58 62,62 2,62 2,58 24,58  " style="fill:#656D78;"/><rect height="4" style="fill:#5B6570;" width="20" x="22" y="58"/><path d="M28,38v-4.528c0-2.741,1.549-5.246,4-6.472l0,0l0,0c2.451,1.226,4,3.731,4,6.472V38H28z" style="fill:#CF9E76;"/><rect height="18" style="fill:#F0D0B4;" width="6" x="56" y="20"/><rect height="18" style="fill:#F5E0CD;" width="6" x="50" y="20"/><polygon points="62,20 62,19 59,14 56,19 56,20  " style="fill:#656D78;"/><polygon points="56,20 56,19 53,14 50,19 50,20  " style="fill:#656D78;"/><rect height="6" style="fill:#F5E0CD;" width="6" x="38" y="12"/><rect height="6" style="fill:#F5E0CD;" width="6" x="20" y="12"/><polygon points="44,12 44,11 41,6 38,11 38,12  " style="fill:#969FAA;"/><polygon points="26,12 26,11 23,6 20,11 20,12  " style="fill:#969FAA;"/><rect height="18" style="fill:#F5E0CD;" width="6" x="8" y="20"/><rect height="18" style="fill:#F0D0B4;" width="6" x="2" y="20"/><polygon points="14,20 14,19 11,14 8,19 8,20  " style="fill:#656D78;"/><polygon points="8,20 8,19 5,14 2,19 2,20  " style="fill:#656D78;"/><polygon points="14,26 18,18 46,18 50,26  " style="fill:#969FAA;"/><path d="M24,38v-6c0-1.105-0.895-2-2-2h-2c-1.105,0-2,0.895-2,2v6H24z" style="fill:#CF9E76;"/><path d="M46,38v-6c0-1.105-0.895-2-2-2h-2c-1.105,0-2,0.895-2,2v6H46z" style="fill:#CF9E76;"/><polygon points="38,12 34,2 30,2 26,12  " style="fill:#656D78;"/><rect height="6" style="fill:#F0D0B4;" width="12" x="26" y="12"/><rect height="2" style="fill:#ECC19C;" width="6" x="2" y="36"/><rect height="2" style="fill:#ECC19C;" width="6" x="2" y="20"/><rect height="2" style="fill:#ECC19C;" width="6" x="2" y="56"/><rect height="2" style="fill:#ECC19C;" width="6" x="56" y="56"/><rect height="2" style="fill:#ECC19C;" width="6" x="56" y="36"/><rect height="2" style="fill:#ECC19C;" width="6" x="56" y="20"/><rect height="2" style="fill:#F0D0B4;" width="6" x="8" y="36"/><rect height="2" style="fill:#F0D0B4;" width="6" x="8" y="20"/><rect height="2" style="fill:#F0D0B4;" width="6" x="50" y="36"/><rect height="2" style="fill:#F0D0B4;" width="6" x="50" y="20"/><rect height="2" style="fill:#B27946;" width="6" x="18" y="36"/><rect height="2" style="fill:#CF9E76;" width="8" x="12" y="56"/><rect height="2" style="fill:#CF9E76;" width="8" x="44" y="56"/><rect height="2" style="fill:#B27946;" width="6" x="40" y="36"/><rect height="2" style="fill:#B27946;" width="8" x="28" y="36"/><rect height="20" style="fill:#ECC19C;" width="2" x="56" y="38"/><path d="M24,62V49.276c0-1.925,1.31-3.603,3.178-4.07h0c0.543-0.136,1.052-0.378,1.5-0.714L32,42   l3.322,2.492c0.447,0.336,0.957,0.578,1.5,0.714h0C38.69,45.672,40,47.351,40,49.276V62H24z" style="fill:#E6E9ED;"/><rect height="12" style="fill:#CF9E76;" width="8" x="28" y="50"/><rect height="2" style="fill:#ECC19C;" width="12" x="26" y="16"/><rect height="2" style="fill:#F0D0B4;" width="6" x="20" y="16"/><rect height="2" style="fill:#F0D0B4;" width="6" x="38" y="16"/><rect height="12" style="fill:#ECC19C;" width="2" x="14" y="26"/><rect height="12" style="fill:#ECC19C;" width="2" x="48" y="26"/></g></svg>