<svg width="116.509px" height="116.509px" viewBox="-8.27 0 116.509 116.509" xmlns="http://www.w3.org/2000/svg">
  <g id="Group_3465" data-name="Group 3465" transform="translate(-36.922 -278.386)">
    <path id="Path_4072" data-name="Path 4072" d="M86.77,298.338h39.272s-1.449-8.218-3.642-9.109c-2.169-.88-35.245-1.975-35.448-1.965h-.5c-.2-.01-33.28,1.085-35.447,1.965-2.195.891-3.643,9.109-3.643,9.109H86.77Z"/>
    <path id="Path_4073" data-name="Path 4073" d="M127.548,302.507H89.8v36.921h39.735ZM104.61,309l2.96,2.961L100.7,318.83l-2.961-2.96Zm9.907,24.25-2.96-2.961,6.871-6.871,2.96,2.96Zm-17.028,2.61-2.96-2.96,25.582-25.582,2.96,2.961Z"/>
    <path id="Path_4074" data-name="Path 4074" d="M49.938,345.771a2.4,2.4,0,0,0,0,4.675h6.589a2.4,2.4,0,0,0,0-4.675Z"/>
    <g id="Group_3464" data-name="Group 3464">
      <path id="Path_4075" data-name="Path 4075" d="M132.075,379.949a3.164,3.164,0,0,1-2.375,1.1H44.6a3.207,3.207,0,0,1-3.2-3.2,3.255,3.255,0,0,1,2.577-3.183h85.883a3.181,3.181,0,0,1,2.554,1.511h4.476a7.411,7.411,0,0,0-2.508-4.037,7.993,7.993,0,0,0,2.108-5.384l0-19.445-1.988-57.383a8.355,8.355,0,0,0-.156-1.554l-4.041,1.5c0,.042.012.083.012.125l1.987,57.383v5.064l-21.209,1.281-.5.372c-.612.453-5.978,4.581-5.978,9.628v2.093H132.3v.935a3.921,3.921,0,0,1-2.811,3.753h-85.4a3.864,3.864,0,0,1-2.978-3.753v-.935h28.57V363.72c0-5.047-5.368-9.175-5.98-9.629l-.5-.373-22.088-1.26v-4.841l1.992-57.7c0-2.285,1.842-4.365,3.866-4.365l.2-.01c.3-.03,30.379-2.973,38.871-2.973s39.888,2.944,40.2,2.974l.195.009a3.332,3.332,0,0,1,1.838.605l-.016-.042,4.28-1.589a7.941,7.941,0,0,0-5.994-3.159c-2.224-.209-31.962-2.984-40.507-2.984s-37,2.77-39.187,2.984c-4.243.068-7.943,4.033-7.941,8.477l-1.991,57.7v19.2a8.011,8.011,0,0,0,2.514,5.818A7.381,7.381,0,0,0,44.6,385.233h.828v9.662H61.652v-9.662h51.326v9.662h16.227v-9.662h.495a7.377,7.377,0,0,0,7.048-5.281h-4.437v0Zm-.421-18.323H109.4a14.333,14.333,0,0,1,3.222-3.8l19.032-1.15Zm-90.321-4.963,20.333,1.161a14.271,14.271,0,0,1,3.222,3.8H41.333Z"/>
    </g>
    <path id="Path_4076" data-name="Path 4076" d="M117.734,345.771a2.4,2.4,0,0,0,0,4.675h6.59a2.4,2.4,0,0,0,0-4.675Z"/>
    <path id="Path_4077" data-name="Path 4077" d="M86.084,302.507H48.337l-1.989,36.921H86.084ZM62.3,309l2.96,2.961-6.871,6.871-2.961-2.96Zm9.909,24.25-2.961-2.961,6.872-6.871,2.96,2.96Zm-17.028,2.61-2.961-2.96L77.8,307.316l2.96,2.961Z"/>
  </g>
</svg>
