<?xml version="1.0" ?><!DOCTYPE svg  PUBLIC '-//W3C//DTD SVG 1.1//EN'  'http://www.w3.org/Graphics/SVG/1.1/DTD/svg11.dtd'><svg width="50px" height="50px" viewBox="0 0 50 50" enable-background="new 0 0 50 50" version="1.1" xml:space="preserve" xmlns="http://www.w3.org/2000/svg" xmlns:xlink="http://www.w3.org/1999/xlink"><g id="Layer_13"/><g id="Layer_12"/><g id="Layer_11"/><g id="Layer_10"/><g id="Layer_9"/><g id="Layer_8"/><g id="Layer_7"/><g id="Layer_6"><path clip-rule="evenodd" d="M21.481,14.914c-3.117,7.334-3.018,24.399,0,31.501   C11.822,41.165,11.992,20.07,21.481,14.914 M28.519,46.414c3.018-7.096,3.117-24.171,0-31.5   C38.01,20.076,38.177,41.161,28.519,46.414z M24.756,7.707c-0.712,1.228-1.024,2.243-1.129,3.642   c-5.046,0.322-9.592,2.403-12.964,5.605c-7.914,7.512-7.912,19.908,0,27.421c7.899,7.501,20.775,7.501,28.674,0   c7.912-7.513,7.914-19.908,0-27.421c-3.35-3.181-7.858-5.255-12.863-5.598c0.035-0.349,0.092-0.648,0.179-0.986   c0.768,0.537,1.52,0.77,2.209,0.793c3.267,0.113,4.89-4.343,1.821-5.488c-0.674-0.251-1.625-0.275-2.88,0.109   c0.724-1.685,2.93-2.346,4.434-2.796l0.969-0.308L32.282,0l-0.857,0.264C28.6,1.109,24.097,2.458,24.756,7.707z" fill-rule="evenodd"/></g><g id="Layer_5"/><g id="Layer_4"/><g id="Layer_3"/><g id="Layer_2"/></svg>