<?xml version="1.0" ?><!DOCTYPE svg  PUBLIC '-//W3C//DTD SVG 1.1//EN'  'http://www.w3.org/Graphics/SVG/1.1/DTD/svg11.dtd'><svg width="50px" height="50px" viewBox="0 0 50 50" enable-background="new 0 0 50 50" version="1.1" xml:space="preserve" xmlns="http://www.w3.org/2000/svg" xmlns:xlink="http://www.w3.org/1999/xlink"><g id="Layer_13"/><g id="Layer_12"/><g id="Layer_11"/><g id="Layer_10"/><g id="Layer_9"/><g id="Layer_8"/><g id="Layer_7"/><g id="Layer_6"/><g id="Layer_5"/><g id="Layer_4"><path clip-rule="evenodd" d="M39.773,15.497c-3.358-0.709-6.71-1.97-9.105-4.087   c-2.034-1.798-3.126-4.34-3.424-7.024c2.78-0.466,5.3,0.367,7.38,2.166C36.901,8.522,38.686,11.637,39.773,15.497 M42.254,35.375   c-0.737-0.873-1.404-0.911-2.257-0.188l-1.656-1.957c1.924-1.622,4.19-1.5,5.87,0.49c1.061,1.257,1.724,2.953,1.665,4.611   l-2.559-0.09C43.354,37.223,42.899,36.139,42.254,35.375z M11.657,33.229l-1.656,1.957c-0.855-0.721-1.519-0.685-2.257,0.188   c-0.645,0.764-1.099,1.848-1.063,2.865l-2.559,0.09c-0.059-1.658,0.604-3.353,1.665-4.611C7.467,31.729,9.733,31.608,11.657,33.229   z M33.136,48.82c5.604,2.761,12.456,0.513,15.324-5.053c2.065-4.006,1.545-8.876-1.363-12.324c-2.638-3.125-6.69-4.194-10.337-2.23   c-1.096-3.21-2.414-6.061-3.762-8.976c-0.779-1.683-1.567-3.39-2.326-5.198c4.002,2.591,8.269,3.343,12.861,4.016   c-1.109-5.495-2.57-10.855-7.011-14.696c-2.755-2.384-6.113-3.472-9.838-2.818L26.437,0h-2.877   C22.241,8.902,19.564,14.691,17,20.236c-1.347,2.916-2.666,5.767-3.762,8.976c-3.647-1.964-7.699-0.895-10.337,2.23   c-2.887,3.425-3.437,8.301-1.363,12.324c2.868,5.567,9.716,7.815,15.324,5.053c5.193-2.559,8.258-9.804,4.949-14.904   c-1.343-2.067-3.475-3.241-5.856-3.665c1.058-3.12,2.356-5.927,3.683-8.797c1.88-4.067,3.82-8.262,5.282-13.683   c1.454,4.689,3.381,9.23,5.439,13.683c1.328,2.871,2.626,5.678,3.685,8.8c-2.357,0.426-4.488,1.554-5.857,3.662   C24.879,39.018,27.941,46.261,33.136,48.82z" fill-rule="evenodd"/></g><g id="Layer_3"/><g id="Layer_2"/></svg>