<?xml version="1.0" encoding="iso-8859-1"?>

<!DOCTYPE svg PUBLIC "-//W3C//DTD SVG 1.1//EN" "http://www.w3.org/Graphics/SVG/1.1/DTD/svg11.dtd">
<svg version="1.1" xmlns="http://www.w3.org/2000/svg" xmlns:xlink="http://www.w3.org/1999/xlink" x="0px" y="0px"
	 viewBox="0 0 512 512" style="enable-background:new 0 0 512 512;" xml:space="preserve">
<g id="balls_x5F_1_x5F_soccer">
	<g>
		<g>
			<defs>
				<path id="XMLID_36_" d="M464.249,226.619c14.722,16.785,14.722,41.977,0,58.762c-32.863,37.468-102.068,97.463-208.297,97.463
					c-105.942,0-175.06-59.671-208.03-97.159c-14.949-16.998-14.949-42.372,0-59.37c32.97-37.488,102.088-97.159,208.03-97.159
					C362.181,129.156,431.386,189.151,464.249,226.619z"/>
			</defs>
			<use xlink:href="#XMLID_36_"  style="overflow:visible;fill:#D84315;"/>
			<clipPath id="XMLID_2_">
				<use xlink:href="#XMLID_36_"  style="overflow:visible;"/>
			</clipPath>
			
				<rect x="98.709" y="155.814" style="clip-path:url(#XMLID_2_);fill:#EEEEEE;stroke:#424242;stroke-width:5;stroke-miterlimit:10;" width="29.685" height="200.371"/>
			
				<rect x="403.606" y="155.814" style="clip-path:url(#XMLID_2_);fill:#EEEEEE;stroke:#424242;stroke-width:5;stroke-miterlimit:10;" width="29.685" height="200.371"/>
		</g>
		<g>
			<path style="fill:#EEEEEE;" d="M282.137,286c-4.15,0-7.137-4.426-7.137-8.161V269h-18v8.839c0,3.742-2.998,8.161-7.137,8.161
				h-2.392c-3.899,0-7.472-4.094-7.472-8.161V269h-18v7.644c0,4.623-3.813,8.385-8.5,8.385s-8.5-3.762-8.5-8.385V269h-18v7.644
				c0,4.78-3.439,8.385-8,8.385c-4.561,0-8-3.604-8-8.385v-38.675c0-4.78,3.439-8.385,8-8.385c4.561,0,8,3.604,8,8.385V247h18
				v-9.032c0-4.624,3.813-8.385,8.5-8.385s8.5,3.761,8.5,8.385V247h18v-10.228c0-3.806,3.36-6.772,7.472-6.772h2.392
				c4.003,0,7.137,2.77,7.137,6.772V247h18v-10.228c0-3.937,3.07-6.772,7.137-6.772h2.392c3.803,0,6.472,2.573,6.472,6.772V247h18
				v-9.032c0-4.624,3.813-8.385,8.5-8.385s8.5,3.761,8.5,8.385V247h18v-9.032c0-4.624,3.813-8.385,8.5-8.385s8.5,3.761,8.5,8.385
				v38.675c0,4.623-3.813,8.385-8.5,8.385s-8.5-3.762-8.5-8.385V269h-18v7.644c0,4.623-3.813,8.385-8.5,8.385s-8.5-3.762-8.5-8.385
				V269h-18v8.839c0,3.932-2.298,8.161-6.472,8.161H282.137z"/>
			<path style="fill:#424242;" d="M352,232.083c3.25,0,6,2.635,6,5.885v11.006v16.664v11.006c0,3.25-2.75,5.885-6,5.885
				s-6-2.635-6-5.885V266h-23v10.644c0,3.25-2.75,5.885-6,5.885s-6-2.635-6-5.885V266h-23v11.839c0,2.59-0.882,5.161-3.471,5.161
				h-2.392c-2.589,0-5.137-2.571-5.137-5.161V266h-23v11.839c0,2.59-1.547,5.161-4.137,5.161h-2.392
				c-2.59,0-5.472-2.571-5.472-5.161V266h-23v10.644c0,3.25-2.75,5.885-6,5.885s-6-2.635-6-5.885V266h-23v10.644
				c0,3.25-2.25,5.885-5.5,5.885s-5.5-2.635-5.5-5.885v-11.006v-16.664v-11.006c0-3.25,2.25-5.885,5.5-5.885s5.5,2.635,5.5,5.885
				V249h23v-11.032c0-3.25,2.75-5.885,6-5.885s6,2.635,6,5.885V249h23v-12.228c0-2.59,2.882-4.772,5.472-4.772h2.392
				c2.589,0,4.137,2.183,4.137,4.772V249h23v-12.228c0-2.59,2.547-4.772,5.137-4.772h2.392c2.589,0,3.471,2.183,3.471,4.772V249h23
				v-11.032c0-3.25,2.75-5.885,6-5.885s6,2.635,6,5.885V249h23v-11.032C346,234.718,348.75,232.083,352,232.083 M352,227.083
				c-6.065,0-11,4.883-11,10.885V244h-13v-6.032c0-6.002-4.935-10.885-11-10.885c-6.065,0-11,4.883-11,10.885V244h-13v-7.228
				c0-5.606-3.256-9.772-8.471-9.772h-2.392c-5.377,0-10.137,4.522-10.137,9.772V244h-13v-7.228c0-5.339-3.797-9.772-9.137-9.772
				h-2.392c-5.562,0-10.472,4.522-10.472,9.772V244h-13v-6.032c0-6.002-4.935-10.885-11-10.885s-11,4.883-11,10.885V244h-13v-6.032
				c0-6.104-4.612-10.885-10.5-10.885c-5.888,0-10.5,4.781-10.5,10.885v11.006v16.664v11.006c0,6.104,4.612,10.885,10.5,10.885
				c5.888,0,10.5-4.781,10.5-10.885V271h13v5.644c0,6.002,4.935,10.885,11,10.885s11-4.883,11-10.885V271h13v6.839
				c0,5.449,5.193,10.161,10.472,10.161h2.392c5.696,0,9.137-5.132,9.137-10.161V271h13v6.839c0,5.547,4.942,10.161,10.137,10.161
				h2.392c5.049,0,8.471-4.225,8.471-10.161V271h13v5.644c0,6.002,4.935,10.885,11,10.885c6.065,0,11-4.883,11-10.885V271h13v5.644
				c0,6.002,4.935,10.885,11,10.885c6.065,0,11-4.883,11-10.885v-11.006v-16.664v-11.006C363,231.966,358.065,227.083,352,227.083
				L352,227.083z"/>
		</g>
		<g>
			<path style="fill:#424242;" d="M255.952,143.156c44.355,0,86.327,11.055,124.752,32.857c33.792,19.174,58.36,43.123,73.02,59.837
				c10.075,11.487,10.075,28.812,0,40.299c-14.659,16.714-39.227,40.664-73.02,59.837c-38.425,21.803-80.397,32.857-124.752,32.857
				c-44.25,0-86.133-11.004-124.484-32.706c-33.778-19.114-58.359-43.014-73.033-59.699c-10.248-11.652-10.248-29.227,0-40.879
				c14.673-16.685,39.255-40.585,73.033-59.699C169.819,154.16,211.701,143.156,255.952,143.156 M255.952,129.156
				c-105.942,0-175.06,59.671-208.03,97.159c-14.949,16.998-14.949,42.372,0,59.37c32.97,37.488,102.088,97.159,208.03,97.159
				c106.229,0,175.435-59.995,208.297-97.463c14.722-16.785,14.722-41.977,0-58.762C431.386,189.15,362.181,129.156,255.952,129.156
				L255.952,129.156z"/>
		</g>
	</g>
</g>
<g id="Layer_1">
</g>
</svg>
