<?xml version="1.0" ?><!DOCTYPE svg  PUBLIC '-//W3C//DTD SVG 1.1//EN'  'http://www.w3.org/Graphics/SVG/1.1/DTD/svg11.dtd'><svg width="50px" height="50px" viewBox="0 0 50 50" enable-background="new 0 0 50 50" version="1.1" xml:space="preserve" xmlns="http://www.w3.org/2000/svg" xmlns:xlink="http://www.w3.org/1999/xlink"><g id="Layer_13"/><g id="Layer_12"/><g id="Layer_11"/><g id="Layer_10"/><g id="Layer_9"/><g id="Layer_8"/><g id="Layer_7"/><g id="Layer_6"/><g id="Layer_5"><path clip-rule="evenodd" d="M25.104,28.887c0.811,0,1.469,0.611,1.469,1.364c0,1.114-0.774,2.198-1.469,2.826   c-0.694-0.628-1.467-1.711-1.467-2.826C23.636,29.498,24.294,28.887,25.104,28.887 M35.694,23.229c0-0.753,0.658-1.364,1.469-1.364   c0.81,0,1.467,0.61,1.467,1.364c0,1.114-0.774,2.197-1.467,2.825C36.467,25.426,35.694,24.343,35.694,23.229z M14.981,22.44   c0,1.115-0.774,2.199-1.468,2.826c-0.694-0.627-1.468-1.711-1.468-2.826c0-0.752,0.657-1.364,1.468-1.364   C14.324,21.076,14.981,21.687,14.981,22.44z M21.084,21.47c0.811,0,1.468,0.61,1.468,1.363c0,1.115-0.774,2.199-1.468,2.826   c-0.694-0.627-1.468-1.711-1.468-2.826C19.617,22.081,20.274,21.47,21.084,21.47z M19.059,30.645c0,1.114-0.773,2.197-1.468,2.826   c-0.694-0.628-1.468-1.712-1.468-2.826c0-0.753,0.657-1.364,1.468-1.364C18.401,29.281,19.059,29.892,19.059,30.645z M29.59,36.746   c0.812,0,1.468,0.611,1.468,1.363c0,1.116-0.774,2.199-1.468,2.826c-0.694-0.627-1.467-1.71-1.467-2.826   C28.122,37.357,28.779,36.746,29.59,36.746z M31.208,30.645c0-0.753,0.658-1.364,1.468-1.364c0.811,0,1.468,0.611,1.468,1.364   c0,1.114-0.773,2.197-1.468,2.826C31.982,32.842,31.208,31.759,31.208,30.645z M21.084,36.746c0.811,0,1.468,0.611,1.468,1.363   c0,1.116-0.774,2.199-1.468,2.826c-0.694-0.627-1.468-1.71-1.468-2.826C19.617,37.357,20.274,36.746,21.084,36.746z M31.058,22.834   c0,1.115-0.774,2.199-1.468,2.826c-0.694-0.627-1.467-1.711-1.467-2.826c0-0.753,0.657-1.363,1.467-1.363   C30.401,21.47,31.058,22.081,31.058,22.834z M11.689,5.263c-0.54,3.378,0.105,5.688,2.487,8.12   c-4.426,1.081-7.059,4.216-7.413,8.809C5.914,33.183,16.365,44.584,25.068,50c8.7-5.406,19.048-16.781,18.165-27.758   c-0.371-4.606-3.027-7.761-7.467-8.853c2.408-2.425,3.089-4.727,2.543-8.125c-3.098-0.788-5.564-0.749-8.418,0.743   C29.471,3.179,27.86,0.802,24.999,0c-2.861,0.802-4.471,3.177-4.892,6.006C17.254,4.514,14.788,4.476,11.689,5.263z M24.962,13.996   c-1.722,0-3.524-0.327-6.52-0.977c-2.031-0.895-3.998-3.136-4.161-5.424c1.969-0.199,5.118,0.621,6.291,2.268l1.147-0.816   l1.335-0.453c-0.591-1.815,0.145-4.708,1.946-5.626c1.801,0.918,2.537,3.811,1.946,5.626l1.335,0.453l1.147,0.816   c1.173-1.646,4.32-2.466,6.289-2.268c-0.18,2.289-2.204,4.529-4.23,5.424C28.487,13.67,26.685,13.996,24.962,13.996z" fill-rule="evenodd"/></g><g id="Layer_4"/><g id="Layer_3"/><g id="Layer_2"/></svg>